<svg xmlns="http://www.w3.org/2000/svg" xmlns:xlink="http://www.w3.org/1999/xlink" width="1431.841" height="140.903"><defs><path d="M1451 150.263v20.552c-241.167 29.62-481.667 44.43-721.5 44.43-239.833 0-479.667-14.81-719.5-44.43v-20.552c239.833 42.655 479.667 63.982 719.5 63.982 239.833 0 480.333-21.327 721.5-63.982z" id="b"/><filter x="-.011" y="-.215" width="1.022" height="1.492" filterUnits="objectBoundingBox" id="c"><feOffset dy="2" in="SourceAlpha" result="shadowOffsetOuter1"/><feGaussianBlur stdDeviation="5" in="shadowOffsetOuter1" result="shadowBlurOuter1"/><feColorMatrix values="0 0 0 0 0 0 0 0 0 0 0 0 0 0 0 0 0 0 0.2 0" in="shadowBlurOuter1"/></filter><clipPath clipPathUnits="userSpaceOnUse" id="a"><path d="M14.58 113.034h1431.841v208.367H14.58z"/></clipPath></defs><path fill="#fff" d="M0 78.192h1430.626v57.711H0z"/><g clip-path="url(#a)" transform="translate(-14.58 -136.292)" fill="none" fill-rule="evenodd"><path d="M10 150.263c239.833 42.655 479.667 63.982 719.5 63.982 239.833 0 480.333-21.327 721.5-63.982v121.744C1221.55 234.67 982.383 216 733.5 216c-248.885 0-490.051 18.67-723.5 56.007z" fill="#f3f5f5"/><use xlink:href="#b" width="100%" height="100%" fill="#000" filter="url(#c)"/><use xlink:href="#b" width="100%" height="100%" fill="#fbcc2d"/></g></svg>